<svg xmlns="http://www.w3.org/2000/svg" width="48" height="48" viewBox="0 0 48 48" xml:space="preserve">
  <path d="M20 48c-4.134 0-7.5-3.364-7.5-7.5a1.5 1.5 0 0 1 3 0c0 2.482 2.02 4.5 4.5 4.5s4.5-2.018 4.5-4.5a1.5 1.5 0 0 1 3 0c0 4.136-3.366 7.5-7.5 7.5m0 0" data-original="#000000"/>
  <path d="M36.5 42h-33C1.57 42 0 40.43 0 38.5a3.5 3.5 0 0 1 1.224-2.66q.076-.066.16-.12A13.44 13.44 0 0 0 6 25.58V20c0-7.72 6.282-14 14-14 .32 0 .666.006.986.06a1.5 1.5 0 0 1 1.234 1.726 1.51 1.51 0 0 1-1.726 1.232C20.334 8.992 20.158 9 20 9 13.936 9 9 13.934 9 20v5.58a16.45 16.45 0 0 1-5.806 12.542c-.03.024-.056.046-.088.068A.5.5 0 0 0 3 38.5c0 .272.228.5.5.5h33c.272 0 .5-.228.5-.5a.48.48 0 0 0-.108-.31q-.043-.032-.086-.068A16.45 16.45 0 0 1 31 25.58V23.4a1.5 1.5 0 0 1 3 0v2.18c0 3.894 1.682 7.582 4.622 10.146q.081.053.154.116A3.49 3.49 0 0 1 40 38.5c0 1.93-1.57 3.5-3.5 3.5m0 0" data-original="#000000"/>
  <path d="M34 20c-5.514 0-10-4.486-10-10S28.486 0 34 0s10 4.486 10 10-4.486 10-10 10m0-17c-3.86 0-7 3.14-7 7s3.14 7 7 7 7-3.14 7-7-3.14-7-7-7m0 0" data-original="#000000"/>
</svg>
