<svg width="18" height="19" viewBox="0 0 18 19" fill="none" xmlns="http://www.w3.org/2000/svg">
<g id="SVG (6) 1" clip-path="url(#clip0_57_442)">
<g id="Group">
<path id="Vector" d="M9 0.969177C5.40545 0.969177 2.48108 3.89354 2.48108 7.48806C2.48108 11.949 8.31487 18.4978 8.56325 18.7744C8.79655 19.0343 9.20387 19.0338 9.43674 18.7744C9.68512 18.4978 15.5189 11.949 15.5189 7.48806C15.5188 3.89354 12.5945 0.969177 9 0.969177ZM9 10.7679C7.19149 10.7679 5.7202 9.29657 5.7202 7.48806C5.7202 5.67955 7.19152 4.20826 9 4.20826C10.8085 4.20826 12.2798 5.67959 12.2798 7.4881C12.2798 9.2966 10.8085 10.7679 9 10.7679Z" fill="#507A4D"/>
</g>
</g>
<defs>
<clipPath id="clip0_57_442">
<rect width="18" height="18" fill="white" transform="translate(0 0.969177)"/>
</clipPath>
</defs>
</svg>
